<?xml version="1.0" encoding="UTF-8" standalone="no"?>
<svg
   xmlns:dc="http://purl.org/dc/elements/1.1/"
   xmlns:cc="http://creativecommons.org/ns#"
   xmlns:rdf="http://www.w3.org/1999/02/22-rdf-syntax-ns#"
   xmlns:svg="http://www.w3.org/2000/svg"
   xmlns="http://www.w3.org/2000/svg"
   xml:space="preserve"
   enable-background="new 0 0 595.28 841.89"
   viewBox="0 0 298.9785 268.85418"
   height="268.85419"
   width="298.97852"
   y="0px"
   x="0px"
   id="Layer_1"
   version="1.1"><metadata
     id="metadata1509"><rdf:RDF><cc:Work
         rdf:about=""><dc:format>image/svg+xml</dc:format><dc:type
           rdf:resource="http://purl.org/dc/dcmitype/StillImage" /><dc:title></dc:title></cc:Work></rdf:RDF></metadata><defs
     id="defs1507" /><path
     d="m 137.7555,147.11516 c 0,4.044 -1.662,8.522 -3.713,8.522 h -14.541 c -2.052,0 -3.716,-3.279 -3.716,-7.323 v -3.545 c 0,-4.044 1.664,-7.324 3.716,-7.324 h 14.541 c 2.051,0 3.713,3.279 3.713,7.324 z"
     id="path1182"
     style="fill:#b28abf" /><text
     y="139.69846"
     x="133.40401"
     style="font-size:9.39955425px;font-family:MyriadPro-Regular;stroke-width:0.93279153"
     id="text1186"
     font-size="10.0768"
     transform="scale(0.93279153,1.0720509)">P</text>
<path
     d="m 116.1805,147.11516 c 0,4.044 -1.662,8.522 -3.714,8.522 H 97.924498 c -2.05,0 -3.713,-3.279 -3.713,-7.323 v -3.545 c 0,-4.044 1.663,-7.324 3.713,-7.324 H 112.4665 c 2.052,0 3.714,3.279 3.714,7.324 z"
     id="path1188"
     style="fill:#b28abf" /><text
     y="139.69846"
     x="109.53627"
     style="font-size:9.39955425px;font-family:MyriadPro-Regular;stroke-width:0.93279153"
     id="text1192"
     font-size="10.0768"
     transform="scale(0.93279153,1.0720509)">Q</text>
<path
     d="m 223.1085,147.11416 c 0,4.046 -1.661,8.524 -3.713,8.524 h -14.541 c -2.052,0 -3.715,-3.279 -3.715,-7.323 v -3.546 c 0,-4.046 1.663,-7.325 3.715,-7.325 h 14.541 c 2.052,0 3.713,3.279 3.713,7.325 z"
     id="path1194"
     style="fill:#b28abf" /><text
     y="139.69846"
     x="224.3672"
     style="font-size:9.39955425px;font-family:MyriadPro-Regular;stroke-width:0.93279153"
     id="text1198"
     font-size="10.0768"
     transform="scale(0.93279153,1.0720509)">U</text>
<path
     d="m 200.9135,147.11416 c 0,4.046 -1.663,8.524 -3.715,8.524 h -14.542 c -2.051,0 -3.713,-3.279 -3.713,-7.323 v -3.546 c 0,-4.046 1.662,-7.325 3.713,-7.325 h 14.542 c 2.052,0 3.715,3.279 3.715,7.325 z"
     id="path1200"
     style="fill:#b28abf" /><text
     y="139.69846"
     x="201.2751"
     style="font-size:9.39955425px;font-family:MyriadPro-Regular;stroke-width:0.93279153"
     id="text1204"
     font-size="10.0768"
     transform="scale(0.93279153,1.0720509)">T</text>
<g
     transform="translate(-18.076498,-251.51784)"
     id="g1210"><path
       d="m 142.041,443.627 c 0,5.778 -2.377,10.463 -5.306,10.463 h -20.774 c -2.929,0 -5.306,-4.685 -5.306,-10.463 v -5.064 c 0,-5.778 2.377,-10.463 5.306,-10.463 h 20.774 c 2.929,0 5.306,4.685 5.306,10.463 z"
       id="path1206"
       style="fill:#27aae1" /><text
       transform="matrix(0.9783,0,0,1,122.707,446.6465)"
       font-size="14.3955"
       id="text1208"
       style="font-size:14.39550018px;font-family:MyriadPro-Regular">V</text>
</g><path
     d="m 93.452498,192.11216 c 0,5.776 -2.376,10.461 -5.305,10.461 H 67.372502 c -2.931,0 -5.305,-4.685 -5.305,-10.461 v -5.068 c 0,-5.779 2.374,-10.463 5.305,-10.463 h 20.774996 c 2.929,0 5.305,4.684 5.305,10.463 z"
     id="path1214"
     style="fill:#ed1c24" /><text
     y="193.84894"
     x="73.598503"
     style="font-size:14.23845196px;font-family:MyriadPro-Regular;stroke-width:0.9890905"
     id="text1218"
     font-size="14.3955"
     transform="scale(0.98909052,1.0110298)">W</text>
<path
     d="m 220.5175,192.76616 c 0,5.78 -2.374,10.46 -5.306,10.46 h -20.774 c -2.93,0 -5.306,-4.68 -5.306,-10.46 v -5.065 c 0,-5.779 2.376,-10.462 5.306,-10.462 h 20.774 c 2.932,0 5.306,4.683 5.306,10.462 z"
     id="path1220"
     style="fill:#27aae1" /><text
     y="193.84894"
     x="203.11003"
     style="font-size:14.23845196px;font-family:MyriadPro-Regular;stroke-width:0.9890905"
     id="text1224"
     font-size="14.3955"
     transform="scale(0.98909052,1.0110298)">V</text>
<circle
     cx="224.86249"
     cy="178.79317"
     r="6.7309999"
     id="circle1226"
     style="fill:#fbb040" /><text
     y="182.71657"
     x="222.7868"
     style="font-size:10.03789997px;font-family:MyriadPro-Regular"
     id="text1230"
     font-size="10.0379">P</text>
<line
     style="fill:none;stroke:#000000;stroke-width:1.90419996"
     id="line1232"
     y2="198.88417"
     x2="158.13751"
     y1="198.88417"
     x1="158.13751" /><line
     style="fill:none;stroke:#000000;stroke-width:1.90419996"
     id="line1234"
     y2="198.88417"
     x2="158.13751"
     y1="198.88417"
     x1="158.13751" /><path
     d="m 46.458502,192.76616 c 0,5.778 -2.374,10.461 -5.305,10.461 h -4.064 v -6.266 h -12.644 v 6.266 h -4.065 c -2.931,0 -5.305,-4.683 -5.305,-10.461 v -5.066 c 0,-5.776 2.374,-10.461 5.305,-10.461 h 20.773 c 2.931,0 5.305,4.685 5.305,10.461 z"
     id="path1236"
     style="fill:#39b54a" /><text
     y="191.94513"
     x="25.360378"
     style="font-size:14.12539959px;font-family:MyriadPro-Regular;stroke-width:0.9890905"
     id="text1240"
     font-size="14.2812"
     transform="scale(0.98909052,1.0110298)">σ</text>
<text
     y="185.9418"
     x="33.187332"
     style="font-size:10.4959507px;font-family:MyriadPro-Regular;stroke-width:0.57661504"
     id="text1242"
     font-size="18.2027"
     transform="scale(0.98904808,1.0110732)">B</text>
<line
     style="fill:#ffffff;stroke:#000000;stroke-width:1.84322643"
     id="line1244"
     y2="250.01915"
     x2="127.6637"
     y1="250.01915"
     x1="0.44748321" /><path
     d="m 70.261498,252.31816 c 0,2.598 -0.463996,4.708 -1.035996,4.708 h -21.919 c -0.573,0 -1.037,-2.11 -1.037,-4.708 v -7.008 c 0,-2.601 0.464,-4.708 1.037,-4.708 h 21.919 c 0.572,0 1.035996,2.107 1.035996,4.708 z"
     id="path1246"
     style="fill:#27aae1" /><text
     y="253.78294"
     x="54.629097"
     style="font-size:12.38720036px;font-family:MyriadPro-Regular"
     id="text1250"
     font-size="12.3872">V</text>
<path
     d="m 94.291498,252.31816 c 0,2.598 -0.464,4.708 -1.038,4.708 h -21.919 c -0.573,0 -1.037,-2.11 -1.037,-4.708 v -7.008 c 0,-2.601 0.464,-4.708 1.037,-4.708 h 21.919 c 0.574,0 1.038,2.107 1.038,4.708 z"
     id="path1252"
     style="fill:#ed1c24" /><path
     d="m 94.782498,252.31816 c 0,2.598 -0.464,4.708 -1.038,4.708 h -21.919 c -0.573,0 -1.037,-2.11 -1.037,-4.708 v -7.008 c 0,-2.601 0.464,-4.708 1.037,-4.708 h 21.919 c 0.574,0 1.038,2.107 1.038,4.708 z"
     id="path1256"
     style="fill:#ed1c24" /><path
     d="m 94.291498,252.31816 c 0,2.598 -0.464,4.708 -1.038,4.708 h -21.919 c -0.573,0 -1.037,-2.11 -1.037,-4.708 v -7.008 c 0,-2.601 0.464,-4.708 1.037,-4.708 h 21.919 c 0.574,0 1.038,2.107 1.038,4.708 z"
     id="path1260"
     style="fill:#ed1c24" /><path
     d="m 94.782498,252.31816 c 0,2.598 -0.464,4.708 -1.038,4.708 h -21.919 c -0.573,0 -1.037,-2.11 -1.037,-4.708 v -7.008 c 0,-2.601 0.464,-4.708 1.037,-4.708 h 21.919 c 0.574,0 1.038,2.107 1.038,4.708 z"
     id="path1264"
     style="fill:#ed1c24" /><path
     d="m 94.291498,252.31816 c 0,2.598 -0.464,4.708 -1.038,4.708 h -21.919 c -0.573,0 -1.037,-2.11 -1.037,-4.708 v -7.008 c 0,-2.601 0.464,-4.708 1.037,-4.708 h 21.919 c 0.574,0 1.038,2.107 1.038,4.708 z"
     id="path1268"
     style="fill:#ed1c24" /><path
     d="m 94.782498,252.31816 c 0,2.598 -0.464,4.708 -1.038,4.708 h -21.919 c -0.573,0 -1.037,-2.11 -1.037,-4.708 v -7.008 c 0,-2.601 0.464,-4.708 1.037,-4.708 h 21.919 c 0.574,0 1.038,2.107 1.038,4.708 z"
     id="path1272"
     style="fill:#ed1c24" /><text
     y="253.78297"
     x="76.851692"
     font-size="12.3872"
     id="text1276"
     style="font-size:12.38720036px;font-family:MyriadPro-Regular">W</text>
<path
     d="m 118.7025,252.31816 c 0,2.598 -0.458,4.708 -1.023,4.708 H 96.089498 c -0.563,0 -1.021,-2.11 -1.021,-4.708 v -7.008 c 0,-2.601 0.458,-4.708 1.021,-4.708 H 117.6795 c 0.565,0 1.023,2.107 1.023,4.708 z"
     id="path1280"
     style="fill:#39b54a" /><path
     d="m 118.2105,252.31816 c 0,2.598 -0.457,4.708 -1.021,4.708 H 95.599498 c -0.564,0 -1.022,-2.11 -1.022,-4.708 v -7.008 c 0,-2.601 0.458,-4.708 1.022,-4.708 H 117.1895 c 0.564,0 1.021,2.107 1.021,4.708 z"
     id="path1284"
     style="fill:#39b54a" /><path
     d="m 118.7025,252.31816 c 0,2.598 -0.458,4.708 -1.023,4.708 H 96.089498 c -0.563,0 -1.021,-2.11 -1.021,-4.708 v -7.008 c 0,-2.601 0.458,-4.708 1.021,-4.708 H 117.6795 c 0.565,0 1.023,2.107 1.023,4.708 z"
     id="path1288"
     style="fill:#39b54a" /><rect
     style="fill:#39b54a"
     id="rect1292"
     height="6.73"
     width="9.059"
     y="242.93715"
     x="4.3194942" /><g
     transform="translate(-18.076498,-251.51784)"
     id="g1304"><g
       id="g1302"><g
         id="g1300"><line
           x1="158.76801"
           y1="437.457"
           x2="200.58501"
           y2="437.457"
           id="line1294"
           style="fill:none;stroke:#000000;stroke-width:1.90419996" /><g
           id="g1298"><path
             d="m 160.818,437.457 2.503,-4.116 -0.14,-0.094 -6.712,2.666 c -2.338,0.515 -4.677,1.029 -7.016,1.544 2.338,0.515 4.677,1.028 7.016,1.544 l 6.712,2.666 0.14,-0.07 z"
             id="path1296" /></g></g></g></g><g
     transform="translate(-18.076498,-251.51784)"
     id="g1318"><g
       id="g1316"><g
         id="g1314"><line
           x1="148.50301"
           y1="444.57999"
           x2="190.32001"
           y2="444.57999"
           id="line1308"
           style="fill:none;stroke:#000000;stroke-width:1.90419996" /><g
           id="g1312"><path
             d="m 188.27,444.58 -2.504,-4.116 0.141,-0.094 6.713,2.666 c 2.338,0.515 4.677,1.029 7.016,1.544 -2.339,0.515 -4.678,1.028 -7.016,1.544 l -6.713,2.666 -0.141,-0.07 z"
             id="path1310" /></g></g></g></g><g
     transform="translate(-18.076498,-251.51784)"
     id="g1332"><g
       id="g1330"><g
         id="g1328"><path
           stroke-miterlimit="10"
           d="m 36.246,441.864 c 0,0 -5.244,-3.448 -7.104,10.791 -0.421,3.226 -0.96,8.471 -1.407,13.069"
           id="path1322"
           style="fill:none;stroke:#39b54a;stroke-width:1.90419996;stroke-miterlimit:10" /><g
           id="g1326"><path
             d="m 28.024,463.693 4.348,-2.076 0.079,0.149 -3.329,6.409 c -0.747,2.274 -1.495,4.55 -2.243,6.824 -0.276,-2.379 -0.552,-4.757 -0.829,-7.136 l -1.976,-6.946 0.084,-0.133 z"
             id="path1324"
             style="fill:#39b54a" /></g></g></g></g><circle
     style="fill:#39b54a"
     id="circle1336"
     r="5.3829999"
     cy="232.44518"
     cx="8.849493" /><line
     style="fill:none;stroke:#000000;stroke-width:1.90419996"
     id="line1338"
     y2="232.47038"
     x2="11.720495"
     y1="232.47038"
     x1="5.882513" /><line
     style="fill:none;stroke:#000000;stroke-width:1.90419996"
     id="line1340"
     y2="235.59337"
     x2="8.849493"
     y1="229.34639"
     x1="8.849493" /><g
     transform="translate(-18.076498,-251.51784)"
     id="g1348"><polyline
       points="42.648,501.186 42.648,488.228 56.577,488.228   "
       id="polyline1342"
       style="fill:none;stroke:#000000;stroke-width:1.90419996" /><g
       id="g1346"><path
         d="m 63.472,488.228 c -3.244,1.204 -7.27,3.258 -9.765,5.434 l 1.965,-5.434 -1.965,-5.433 c 2.495,2.176 6.521,4.229 9.765,5.433 z"
         id="path1344" /></g></g><text
     y="250.12177"
     x="102.36395"
     style="font-size:12.15483475px;font-family:MyriadPro-Regular;stroke-width:0.9890905"
     id="text1352"
     font-size="12.2889"
     transform="scale(0.98909052,1.0110298)">σ</text>
<text
     y="244.95235"
     x="109.10226"
     style="font-size:9.03163719px;font-family:MyriadPro-Regular;stroke-width:0.57661504"
     id="text1354"
     font-size="15.6632"
     transform="scale(0.98904808,1.0110732)">B</text>
<g
     transform="translate(-18.076498,-251.14034)"
     id="g1360"><text
       transform="translate(16.6694,513.4814)"
       font-size="14.337"
       id="text1356"
       style="font-size:14.33699989px;font-family:MyriadPro-Regular;fill:#39b54a">P</text>
<text
       transform="matrix(0.583,0,0,0.583,24.2969,518.2559)"
       font-size="14.337"
       id="text1358"
       style="font-size:14.33699989px;font-family:MyriadPro-Regular;fill:#39b54a">sigB</text>
</g><path
     d="m 198.1815,75.407162 c 0,4.046 -1.664,8.523 -3.713,8.523 h -14.543 c -2.05,0 -3.715,-3.277 -3.715,-7.322 v -3.547 c 0,-4.044 1.665,-7.323 3.715,-7.323 h 14.543 c 2.049,0 3.713,3.279 3.713,7.323 z"
     id="path1364"
     style="fill:#f47521" /><path
     d="m 220.1925,75.407162 c 0,4.046 -1.661,8.523 -3.713,8.523 h -14.541 c -2.052,0 -3.713,-3.277 -3.713,-7.322 v -3.547 c 0,-4.044 1.661,-7.323 3.713,-7.323 h 14.541 c 2.052,0 3.713,3.279 3.713,7.323 z"
     id="path1368"
     style="fill:#f47521" /><path
     d="m 233.9085,93.600162 c 0,4.047 -1.661,8.523998 -3.713,8.523998 h -14.541 c -2.052,0 -3.713,-3.277998 -3.713,-7.321998 v -3.547 c 0,-4.046 1.661,-7.325 3.713,-7.325 h 14.541 c 2.052,0 3.713,3.279 3.713,7.325 z"
     id="path1372"
     style="fill:#f47521" /><path
     d="m 222.9255,111.79416 c 0,4.046 -1.661,8.524 -3.713,8.524 h -14.541 c -2.052,0 -3.716,-3.279 -3.716,-7.324 v -3.545 c 0,-4.046 1.664,-7.325 3.716,-7.325 h 14.541 c 2.052,0 3.713,3.279 3.713,7.325 z"
     id="path1376"
     style="fill:#f47521" /><path
     d="m 200.4815,111.79416 c 0,4.046 -1.661,8.524 -3.713,8.524 h -14.542 c -2.052,0 -3.713,-3.279 -3.713,-7.324 v -3.545 c 0,-4.046 1.661,-7.325 3.713,-7.325 h 14.542 c 2.052,0 3.713,3.279 3.713,7.325 z"
     id="path1380"
     style="fill:#f47521" /><path
     d="m 187.1955,93.600162 c 0,4.047 -1.662,8.523998 -3.714,8.523998 h -14.542 c -2.05,0 -3.713,-3.277998 -3.713,-7.321998 v -3.547 c 0,-4.046 1.663,-7.325 3.713,-7.325 h 14.542 c 2.052,0 3.714,3.279 3.714,7.325 z"
     id="path1384"
     style="fill:#f47521" /><text
     y="72.457802"
     x="198.15425"
     style="font-size:9.39955425px;font-family:MyriadPro-Regular;stroke-width:0.93279153"
     id="text1388"
     font-size="10.0768"
     transform="scale(0.93279153,1.0720509)">R</text>
<text
     y="72.457802"
     x="221.96342"
     style="font-size:9.39955425px;font-family:MyriadPro-Regular;stroke-width:0.93279153"
     id="text1390"
     font-size="10.0768"
     transform="scale(0.93279153,1.0720509)">S</text>
<text
     y="89.942146"
     x="237.09779"
     style="font-size:9.39955425px;font-family:MyriadPro-Regular;stroke-width:0.93279153"
     id="text1392"
     font-size="10.0768"
     transform="scale(0.93279153,1.0720509)">R</text>
<text
     y="106.59397"
     x="224.89272"
     style="font-size:9.39955425px;font-family:MyriadPro-Regular;stroke-width:0.93279153"
     id="text1394"
     font-size="10.0768"
     transform="scale(0.93279153,1.0720509)">S</text>
<text
     y="106.59397"
     x="200.62083"
     style="font-size:9.39955425px;font-family:MyriadPro-Regular;stroke-width:0.93279153"
     id="text1396"
     font-size="10.0768"
     transform="scale(0.93279153,1.0720509)">R</text>
<text
     y="89.942146"
     x="186.58888"
     style="font-size:9.39955425px;font-family:MyriadPro-Regular;stroke-width:0.93279153"
     id="text1398"
     font-size="10.0768"
     transform="scale(0.93279153,1.0720509)">S</text>
<path
     d="m 210.5535,93.600162 c 0,4.047 -1.662,8.523998 -3.713,8.523998 h -14.543 c -2.05,0 -3.715,-3.277998 -3.715,-7.321998 v -3.547 c 0,-4.046 1.665,-7.325 3.715,-7.325 h 14.543 c 2.051,0 3.713,3.279 3.713,7.325 z"
     id="path1400"
     style="fill:#b28abf" /><text
     y="89.942146"
     x="211.85326"
     style="font-size:9.39955425px;font-family:MyriadPro-Regular;stroke-width:0.93279153"
     id="text1404"
     font-size="10.0768"
     transform="scale(0.93279153,1.0720509)">T</text>
<g
     transform="translate(-18.076498,-251.51784)"
     id="g1412"><path
       d="m 206.976,352.392 c 0,0 -19.336,-0.423 -19.336,20.109 0,7.151 2.903,11.937 5.538,14.808"
       id="path1406"
       style="fill:none;stroke:#000000;stroke-width:1.90419996" /><g
       id="g1410"><path
         d="m 192.781,386.832 c -0.175,-2.245 1.295,-5.129 2.667,-6.83 -0.248,3.646 0.245,7.434 1.92,10.754 -3.5,-1.187 -7.323,-0.889 -10.922,-0.232 1.663,-1.655 3.943,-3.441 6.335,-3.692 z"
         id="path1408" /></g></g><text
     y="10.849861"
     x="93.788696"
     id="text1420"><tspan
       style="font-size:14.28120041px;font-family:MyriadPro-Bold"
       id="tspan1416"
       font-size="14.2812"
       y="10.849861"
       x="93.788696">Energy</tspan><tspan
       style="font-size:14.28120041px;font-family:MyriadPro-Bold"
       id="tspan1418"
       font-size="14.2812"
       y="23.543861"
       x="97.022713">Stress</tspan></text>
<text
     y="10.850365"
     x="152.36102"
     id="text1426"><tspan
       style="font-size:14.28120041px;font-family:MyriadPro-Bold"
       id="tspan1422"
       font-size="14.2812"
       y="10.850365"
       x="152.36102">Environmental</tspan><tspan
       style="font-size:14.28120041px;font-family:MyriadPro-Bold"
       id="tspan1424"
       font-size="14.2812"
       y="23.544365"
       x="180.409">Stress</tspan></text>
<g
     transform="translate(-18.076498,-251.51784)"
     id="g1434"><line
       x1="144.847"
       y1="410"
       x2="171.562"
       y2="426.01001"
       id="line1428"
       style="fill:none;stroke:#000000;stroke-width:1.90419996" /><g
       id="g1432"><path
         d="m 171.036,425.694 c -0.547,-2.184 0.42,-5.273 1.489,-7.179 0.365,3.637 1.483,7.288 3.689,10.282 -3.649,-0.586 -7.369,0.347 -10.807,1.595 1.363,-1.909 3.312,-4.049 5.629,-4.698 z"
         id="path1430" /></g></g><g
     transform="translate(-18.076498,-251.51784)"
     id="g1444"><line
       x1="219.216"
       y1="410"
       x2="184.575"
       y2="426.46899"
       id="line1438"
       style="fill:none;stroke:#000000;stroke-width:1.90419996" /><g
       id="g1442"><path
         d="m 185.128,426.206 c 2.121,0.754 4.158,3.271 5.152,5.217 -3.23,-1.711 -6.89,-2.803 -10.604,-2.625 2.509,-2.713 3.793,-6.327 4.659,-9.881 0.834,2.192 1.538,5.001 0.793,7.289 z"
         id="path1440" /></g></g><path
     d="m 267.59251,192.11016 c 0,5.778 -2.37401,10.461 -5.30501,10.461 h -4.064 v -6.266 h -12.644 v 6.266 h -4.065 c -2.931,0 -5.305,-4.683 -5.305,-10.461 v -5.066 c 0,-5.776 2.374,-10.461 5.305,-10.461 h 20.773 c 2.931,0 5.30501,4.685 5.30501,10.461 z"
     id="path1450"
     style="fill:#39b54a" /><text
     y="191.3945"
     x="247.92213"
     style="font-size:14.12539959px;font-family:MyriadPro-Regular;stroke-width:0.9890905"
     id="text1454"
     font-size="14.2812"
     transform="scale(0.98909052,1.0110298)">σ</text>
<text
     y="185.39117"
     x="255.75879"
     style="font-size:10.4959507px;font-family:MyriadPro-Regular;stroke-width:0.57661504"
     id="text1456"
     font-size="18.2027"
     transform="scale(0.98904808,1.0110732)">B</text>
<path
     d="m 298.97851,192.11216 c 0,5.776 -2.375,10.461 -5.305,10.461 h -20.775 c -2.931,0 -5.305,-4.685 -5.305,-10.461 v -5.068 c 0,-5.779 2.374,-10.463 5.305,-10.463 h 20.775 c 2.93,0 5.305,4.684 5.305,10.463 z"
     id="path1458"
     style="fill:#ed1c24" /><text
     y="193.9426"
     x="280.17194"
     style="font-size:14.23845196px;font-family:MyriadPro-Regular;stroke-width:0.9890905"
     id="text1462"
     font-size="14.3955"
     transform="scale(0.98909052,1.0110298)">W</text>
<g
     transform="translate(-18.076498,-251.51784)"
     id="g1466"><line
       x1="71.578003"
       y1="438.62799"
       x2="71.578003"
       y2="444.875"
       id="line1464"
       style="fill:none;stroke:#000000;stroke-width:1.90419996" /></g><line
     x1="50.534492"
     y1="190.23418"
     x2="56.372505"
     y2="190.23418"
     id="line1468"
     style="fill:none;stroke:#000000;stroke-width:1.90419996" /><g
     transform="translate(-18.076498,-251.51784)"
     id="g1474"><line
       x1="246.5"
       y1="441.45599"
       x2="246.5"
       y2="447.703"
       id="line1472"
       style="fill:none;stroke:#000000;stroke-width:1.90419996" /></g><line
     x1="225.45654"
     y1="193.06215"
     x2="231.29448"
     y2="193.06215"
     id="line1476"
     style="fill:none;stroke:#000000;stroke-width:1.90419996" /><g
     transform="translate(-18.076498,-251.51784)"
     id="g1486"><line
       x1="133.862"
       y1="280.354"
       x2="133.862"
       y2="371.879"
       id="line1480"
       style="fill:none;stroke:#000000;stroke-width:2" /><g
       id="g1484"><polygon
         points="133.862,386 125.731,366.102 133.862,370.823 141.991,366.102 "
         id="polygon1482" /></g></g><g
     transform="translate(-18.076498,-251.51784)"
     id="g1496"><line
       x1="217.644"
       y1="278"
       x2="217.644"
       y2="303.12"
       id="line1490"
       style="fill:none;stroke:#000000;stroke-width:2" /><g
       id="g1494"><polygon
         points="217.644,317.241 209.513,297.343 217.644,302.064 225.772,297.343 "
         id="polygon1492" /></g></g><text
     y="220.98216"
     x="52.4235"
     style="font-size:12px;font-family:MyriadPro-Regular"
     id="text1500"
     font-size="12">ACTIVE</text>
<text
     y="220.98216"
     x="219.19208"
     style="font-size:12px;font-family:MyriadPro-Regular"
     id="text1502"
     font-size="12">INACTIVE</text>
<path
     id="path1513"
     d="m 131.2832,243.98479 c -7.82244,12.71147 -7.82244,12.71147 -7.82244,12.71147"
     style="fill:none;fill-rule:evenodd;stroke:#000000;stroke-width:1px;stroke-linecap:butt;stroke-linejoin:miter;stroke-opacity:1" /><path
     id="path1513-3-5"
     d="m 143.38353,244.30707 c -7.82244,12.71147 -7.82244,12.71147 -7.82244,12.71147"
     style="fill:none;fill-rule:evenodd;stroke:#000000;stroke-width:1px;stroke-linecap:butt;stroke-linejoin:miter;stroke-opacity:1" /><path
     id="path1578"
     d="m 139.81718,250.01915 c 52.06811,0 52.06811,0 52.06811,0"
     style="fill:none;fill-rule:evenodd;stroke:#000000;stroke-width:1.81417322;stroke-linecap:butt;stroke-linejoin:miter;stroke-miterlimit:4;stroke-dasharray:none;stroke-opacity:1" /><circle
     r="0.80000001"
     cy="250.01915"
     cx="130.77399"
     id="path1580"
     style="opacity:1;fill:#000000;fill-opacity:1;stroke:none;stroke-width:4.89550447;stroke-linejoin:miter;stroke-miterlimit:4;stroke-dasharray:none;stroke-dashoffset:0;stroke-opacity:1" /><circle
     r="0.80000001"
     cy="250.01915"
     cx="133.33502"
     id="path1580-5"
     style="opacity:1;fill:#000000;fill-opacity:1;stroke:none;stroke-width:4.89550447;stroke-linejoin:miter;stroke-miterlimit:4;stroke-dasharray:none;stroke-dashoffset:0;stroke-opacity:1" /><circle
     r="0.80000001"
     cy="250.01915"
     cx="135.89606"
     id="path1580-5-6"
     style="opacity:1;fill:#000000;fill-opacity:1;stroke:none;stroke-width:4.89550447;stroke-linejoin:miter;stroke-miterlimit:4;stroke-dasharray:none;stroke-dashoffset:0;stroke-opacity:1" /></svg>